<svg xmlns="http://www.w3.org/2000/svg" width="256" height="256" viewBox="0 0 100 100"><rect width="100" height="100" rx="20" fill="#0066cc"></rect><path d="M15.57 66.85L10.02 66.85L18.47 32.60L29.52 32.60L38.02 66.85L32.42 66.85L30.57 59.50L17.42 59.50L15.57 66.85ZM25.27 37.25L22.77 37.25L18.52 54.60L29.47 54.60L25.27 37.25ZM57.42 61.25L57.42 41.85L62.82 41.85L62.82 66.85L57.42 66.85L57.42 65.30Q53.77 67.40 50.67 67.40L50.67 67.40Q45.52 67.40 43.77 64.63Q42.02 61.85 42.02 54.90L42.02 54.90L42.02 41.85L47.47 41.85L47.47 54.95Q47.47 59.45 48.22 61.00Q48.97 62.55 51.72 62.55L51.72 62.55Q54.42 62.55 56.67 61.55L56.67 61.55L57.42 61.25ZM84.58 61.25L84.58 41.85L89.97 41.85L89.97 66.85L84.58 66.85L84.58 65.30Q80.92 67.40 77.83 67.40L77.83 67.40Q72.67 67.40 70.92 64.63Q69.17 61.85 69.17 54.90L69.17 54.90L69.17 41.85L74.63 41.85L74.63 54.95Q74.63 59.45 75.38 61.00Q76.13 62.55 78.88 62.55L78.88 62.55Q81.58 62.55 83.83 61.55L83.83 61.55L84.58 61.25Z" fill="#ffffff"></path></svg>