<?xml version="1.0" encoding="UTF-8" standalone="no"?>
<svg
   xmlns:dc="http://purl.org/dc/elements/1.1/"
   xmlns:cc="http://creativecommons.org/ns#"
   xmlns:rdf="http://www.w3.org/1999/02/22-rdf-syntax-ns#"
   xmlns:svg="http://www.w3.org/2000/svg"
   xmlns="http://www.w3.org/2000/svg"
   xml:space="preserve"
   enable-background="new 0 0 135 150"
   viewBox="0 0 75 84.29171"
   height="84.29171"
   width="75"
   y="0px"
   x="0px"
   id="Layer_1"
   version="1.1"><metadata
     id="metadata3771"><rdf:RDF><cc:Work
         rdf:about=""><dc:format>image/svg+xml</dc:format><dc:type
           rdf:resource="http://purl.org/dc/dcmitype/StillImage" /><dc:title></dc:title></cc:Work></rdf:RDF></metadata><defs
     id="defs3769" /><g
     transform="matrix(0.56572714,0,0,0.56572714,-0.69259145,36.817254)"
     id="g30"><path
       d="m 102.538,33.74833 c 0.671,0 1.612,0.34 1.376,0.904 -0.234,0.568 -0.501,1.521 -1.031,1.585 -0.529,0.06 -1.56,-0.688 -1.56,-1.354 0,-0.666 0.545,-1.135 1.215,-1.135 z"
       id="path3742"
       style="clip-rule:evenodd;fill:#0066cc;fill-rule:evenodd" /><path
       d="m 44.217,52.02233 c 0.737,0.368 1.474,0.368 2.211,0 l -0.553,-0.87 -1.263,-1.104 c -0.685,-0.368 -1.238,-0.027 -1.659,1.024 z"
       id="path3744"
       style="clip-rule:evenodd;fill:#0066cc;fill-rule:evenodd" /><path
       d="m 81.96,77.60433 c -0.21,0.368 -0.079,0.736 0.396,1.104 0.474,0.371 0.867,0.448 1.183,0.238 z"
       id="path3746"
       style="clip-rule:evenodd;fill:#6f7072;fill-rule:evenodd" /><path
       d="m 133.047,4.64533 c 0.421,-2.842 0.132,-4.632 -0.867,-5.369 -1.054,-0.737 -2.344,-0.5 -3.869,0.71 -0.896,-0.474 -2.105,-0.026 -3.633,1.342 0.264,-0.684 0.289,-1.289 0.079,-1.815 1.369,-0.632 2.251,-1.33 2.646,-2.092 0.395,-0.763 0.593,-1.961 0.593,-3.593 0.157,-1 1.078,-2.79 2.763,-5.369 1.157,-2.58 0.342,-3.475 -2.447,-2.685 1.525,-1.369 2.289,-2.554 2.289,-3.554 0.105,-0.948 -0.289,-2.158 -1.185,-3.632 -0.368,-0.842 -0.921,-1 -1.658,-0.474 0.263,-0.526 0.408,-1.158 0.435,-1.895 0.026,-0.736 -0.461,-2.29 -1.461,-4.659 -0.157,-3.105 -0.896,-4.395 -2.21,-3.869 -0.211,-1.631 -0.738,-3.185 -1.58,-4.658 -1.264,-1.895 -2.263,-2.396 -2.999,-1.5 -2.055,-3.053 -3.977,-4.316 -5.765,-3.791 -0.054,-1.315 -0.501,-2.5 -1.343,-3.552 -0.474,-2 -1.054,-3.395 -1.737,-4.186 -0.948,-0.368 -1.605,0.159 -1.974,1.58 -0.158,-1.158 -0.526,-2.369 -1.106,-3.633 -0.579,-1.263 -1.499,-1.92 -2.763,-1.973 -0.474,-0.053 -0.921,0.026 -1.344,0.237 -0.841,-0.527 -1.551,-0.79 -2.131,-0.79 -1.79,-1.895 -3.421,-2.053 -4.895,-0.475 l -0.238,-1.657 c -0.527,-1.948 -1.579,-2.369 -3.159,-1.263 -2.578,-2.685 -4.789,-4.449 -6.632,-5.291 -1.527,-0.526 -2.528,-0.395 -3.001,0.396 -0.789,-0.79 -1.633,-1.291 -2.526,-1.501 -0.896,-0.21 -1.737,-0.447 -2.526,-0.711 -1.211,-0.052 -1.737,0.606 -1.58,1.974 -1.895,0.106 -3.197,0.435 -3.909,0.987 -0.71,0.553 -0.894,1.33 -0.552,2.33 0.342,1 1.118,1.816 2.33,2.447 -0.316,0.369 -0.447,0.948 -0.395,1.737 0.053,0.79 0.894,1.448 2.525,1.974 1.212,0.316 2.396,0.342 3.554,0.079 -0.263,1.21 0.158,1.974 1.263,2.29 1.526,1.58 3.422,1.975 5.686,1.185 l -0.237,1.5 3.08,1.263 c 0.105,1.475 0.789,2.527 2.054,3.158 l 1.207,0.522 c -0.261,0.03 -1.392,0.965 -1.407,1.114 -0.251,0.292 -0.928,1.746 0.717,2.067 1.252,0.143 2.623,0.271 3.939,0.243 0.033,0.388 0.269,1.018 0.519,1.467 0.225,0.475 0.775,1.167 1.697,2.167 0.855,0.93 2.467,1.848 3.827,2.425 -0.088,0.098 -0.461,1.124 -0.802,2.067 -0.417,1.152 -0.633,3.021 0.172,4.024 -0.175,-0.086 -0.929,0.441 -1.2,0.859 -0.982,1.52 1.148,3.7 1.486,4.45 -0.165,-0.019 -0.754,0.279 -1.064,0.501 -0.732,0.521 -0.483,3.138 1.598,3.585 0.521,0.251 2.912,1.64 4.105,2.856 0.233,0.238 0.903,1.498 1.858,2.752 0.51,0.67 1.049,1.799 2.297,1.827 1.14,3.693 3.019,7.22 5.271,10.664 -0.011,0.107 2.057,2.302 2.8,4.289 -0.251,1.285 -0.222,2.39 -0.227,2.453 -0.271,2.539 -0.729,4.87 -1.369,6.991 -2.24,-1.081 -2.604,0.393 -2.937,1.841 0.057,-0.073 -1.041,-0.214 -1.187,0.291 0.097,-0.876 -1.345,-1.647 -1.999,-1.182 -0.018,0.011 -0.719,0.505 -1.153,0.835 -0.147,0.112 -0.276,-0.723 -0.324,-1.347 -0.022,-0.428 -0.106,-1.894 0.167,-2.468 0.043,-0.094 0.572,-0.727 0.9,-1.315 0.665,-1.192 0.179,-4.948 -0.642,-7.547 -0.247,-0.779 -0.759,-1.151 -1.208,-1.328 -0.182,-0.071 -1.361,-0.004 -1.586,0.901 -0.063,-0.514 -0.893,-0.819 -1.508,-0.965 -1.727,-0.41 -3.574,2.907 -3.368,5.988 -1.257,-0.996 -2.915,-0.679 -2.714,1.048 0.282,2.415 3.915,6.707 4.025,8.645 -1.087,-0.971 -3.552,-0.995 -3.555,1.36 -0.002,0.716 0.583,1.929 0.827,2.447 -0.503,2.511 2.395,4.352 4.76,6.722 -0.042,1.122 0.343,1.137 0.704,1.574 -0.43,0.663 -3.078,4.835 -3.113,4.934 -0.128,0.053 -1.956,-0.972 -2.558,-0.441 -0.64,0.567 -1.159,1.339 -1.459,1.798 l 0.317,2.925 c 0.211,1.21 -0.435,2.566 -1.936,4.063 -1.5,1.501 -2.487,2.882 -2.961,4.147 -0.263,0.947 -1.29,1.975 -3.078,3.079 -0.105,-0.315 -0.527,-0.817 -1.264,-1.501 -0.105,-0.21 -0.316,-0.287 -0.632,-0.234 -1.79,0.473 -5.396,2.536 -10.818,5.222 -0.943,0.477 -2.286,1.671 -4.023,4.671 h -3.079 c -0.843,-1 -1.737,-1.617 -2.686,-2.459 -0.684,-0.526 -1.895,-0.582 -3.631,0.312 -1.632,-0.369 -3.263,-0.148 -4.896,0.903 -1,0.369 -1.737,0.384 -2.21,0.174 l -3.869,-4.214 c -8.001,-3.369 -12.371,-4.881 -13.108,-4.513 -0.789,0.474 -1.368,1.149 -1.736,2.043 -0.79,-0.367 -1.974,-1.371 -3.554,-3.005 l -2.447,-2.764 c -1.79,-1.999 -2.527,-3.896 -2.211,-5.688 l 0.395,-2.447 c 0.053,-0.368 0,-0.659 -0.158,-0.869 -0.579,-0.631 -1.604,-1.01 -2.131,-1.118 -0.113,-0.046 -0.455,-0.165 -0.844,1.262 0.103,0.34 -2.526,-3.464 -2.562,-3.594 0.708,-0.758 1.964,-3.005 2.681,-5.617 0.811,-2.959 1.187,-6.224 1.154,-7.472 0.124,-0.234 0.156,-0.298 0.299,-0.438 1.224,-0.939 2.777,-9.728 2.43,-11.842 -0.158,-0.843 -0.356,-1.276 -0.593,-1.303 -0.237,-0.027 -0.461,0.04 -0.671,0.197 l 0.474,-0.948 c 0.263,-0.685 0.263,-1.131 0,-1.342 -0.157,-0.167 -1.582,-0.145 -2.819,0.482 -0.151,-1.372 -0.801,-3.384 -1.135,-4.112 -0.111,-0.243 -0.454,0.018 -0.465,0.024 -2.21,1.339 -3.192,4.27 -3.978,7.905 l -0.634,0.581 c -2.834,3.551 -5.102,7.685 -6.07,12.334 -0.474,-0.739 -0.744,-1.806 -1.165,-3.201 -0.421,-1.392 -0.552,-2.328 -0.395,-2.801 0.421,-0.736 0.29,-1.421 -0.395,-2.054 -0.527,-0.527 -1.211,-2.895 -2.053,-7.106 0.052,-1.105 0.5,-2.764 1.342,-4.974 0.842,-2.211 2.25,-5.011 4.093,-8.17 0.1,-0.137 0.917,-1.024 1.168,-1.087 2.734,-0.679 14.879,-16.416 13.605,-23.743 -0.202,0.878 5.216,-8.647 5.652,-10.605 l 0.67,-0.218 0.79,-0.315 c 2.632,-1.053 4.87,-2.177 6.923,-3.125 l 3.184,-1.691 c 2.211,-0.947 4.317,-2.237 6.317,-3.869 2.105,-1.842 3.237,-3.763 3.395,-5.764 -0.368,-0.474 -1.447,-0.737 -3.237,-0.79 0.948,-1.053 1.448,-2.158 1.5,-3.317 -0.685,-0.947 -2.737,-1.105 -6.159,-0.473 -3.579,0.895 -6.712,2.29 -9.396,4.185 -2.738,1.737 -5.199,3.856 -7.383,6.356 -2.185,2.5 -3.935,5.093 -5.25,7.778 l 1.579,-3.632 c 0.79,-1.737 1.632,-3.764 2.527,-6.08 0.263,-1.105 0.276,-1.895 0.039,-2.369 -0.236,-0.473 -0.75,-0.605 -1.539,-0.395 -0.842,0.21 -2.369,1.316 -4.58,3.316 -2.422,2.475 -4.567,5.528 -6.435,9.16 -1.869,3.631 -3.146,6.5 -3.83,8.606 0.368,-2.368 0.316,-4.395 -0.158,-6.08 -0.263,-0.685 -0.842,-0.869 -1.736,-0.553 -0.843,0.58 -1.685,1.448 -2.527,2.606 -0.842,1.158 -1.658,2.277 -2.447,3.355 -0.79,1.08 -1.725,2.619 -2.803,4.62 -1.079,2 -2.027,4.37 -2.843,7.106 -0.816,2.738 -1.435,6.37 -1.856,10.896 -0.263,2.896 -0.052,6.002 0.632,9.318 0.842,3.316 1.684,5.764 2.526,7.343 0.843,1.58 1.632,2.501 2.37,2.764 0.473,1.158 1.105,3.08 1.895,5.766 0.421,1.262 0.605,2.223 0.552,2.882 -0.052,0.655 0.119,1.118 0.514,1.382 0.395,0.263 0.723,0.788 0.987,1.577 0.684,2.528 1.605,4.87 2.763,7.03 -0.21,1.157 -0.315,2.314 -0.315,3.471 -2.526,-7.313 -4.58,-12.843 -6.159,-16.581 -3.053,-6.789 -5.449,-9.895 -7.186,-9.316 -0.845,0.316 -1.371,1.079 -1.581,2.29 -0.053,0.473 -0.053,1.684 0,3.631 0.052,1.948 0.236,4.002 0.552,6.158 1.58,7.002 4.291,12.847 8.134,17.531 l 5.764,6.791 c 1.158,1.157 2.263,2.013 3.316,2.563 1.053,0.554 2.027,0.697 2.922,0.435 1.315,2.107 2.974,4.316 4.975,6.634 1.263,1.946 2.58,2.868 3.948,2.763 0.579,1.263 1.447,1.896 2.606,1.896 l 1.184,-0.157 c 1.631,1.578 3.106,2.84 4.421,3.79 l -1.5,4.264 c -2.632,0.368 -5.054,0.578 -7.265,0.631 -2.053,-1.476 -4.947,-3.475 -8.685,-6.002 l -0.237,-4.737 c -0.106,-1.631 0.184,-3.001 0.868,-4.105 0.158,-0.895 -0.342,-1.712 -1.5,-2.447 -1.737,-0.842 -2.475,-1.186 -3.212,-1.027 -0.315,0.104 -0.054,0.396 -0.054,0.869 v 0.295 c 0,-0.239 0.103,-0.319 0.405,-0.218 2.21,0.582 3.208,1.318 3.049,2.213 -0.685,1.156 -1.015,2.475 -0.962,3.947 l 0.071,4.106 c -2.79,-1.841 -5.795,-3.476 -9.005,-4.896 0.368,-0.052 0.788,-0.095 1.261,-0.119 0.474,-0.027 0.789,-0.196 0.947,-0.512 0.157,-0.319 -0.133,-0.501 -0.87,-0.554 -1.631,0 -2.683,0.13 -3.158,0.396 -0.368,0.42 -0.29,0.865 0.237,1.339 3.79,1.896 7.132,3.79 10.028,5.688 4.579,2.896 8.132,5.263 10.659,7.106 2.475,-0.052 5.948,-0.396 10.423,-1.027 l 6.791,-1.262 c 2.789,-0.529 5.685,-0.975 8.685,-1.343 1.105,-0.158 2.5,-0.264 4.186,-0.315 1.684,-0.053 3.237,-0.187 4.658,-0.396 1.369,2.58 2.211,4.842 2.527,6.791 0.158,1 0.026,1.554 -0.395,1.659 -6.265,2.313 -10.765,3.775 -13.502,4.379 -2.737,0.606 -5.212,1.146 -7.423,1.62 -5.526,0.999 -10.975,1.816 -16.344,2.447 -1.369,-0.368 -5.317,-2.395 -11.844,-6.08 -4.633,-2.787 -7.87,-5.053 -9.712,-6.788 -2.105,-2.265 -2.948,-3.632 -2.526,-4.109 1.368,-2.262 2.29,-4.264 2.763,-5.999 0.21,-0.736 0.263,-1.314 0.158,-1.735 -0.579,-1.792 -0.158,-2.714 1.264,-2.767 3.526,-0.21 5.896,-0.263 7.106,-0.157 0.526,0.052 0.869,-0.105 1.026,-0.474 l 1.185,-2.367 -0.711,-0.315 -0.967,1.578 -0.01,-1.596 v 2.069 l -8,0.157 c -0.685,0 -1.499,0.263 -1.948,0.789 -0.447,0.526 -0.584,1.581 -0.164,3.159 0.053,0.578 -0.035,1.08 -0.141,1.501 -0.368,1.683 -1.373,3.737 -2.953,6.156 -0.21,0.372 -0.133,0.923 0.261,1.659 0.396,0.739 1.375,1.896 2.954,3.475 0.685,0.684 1.72,1.528 3.115,2.527 1.395,0.999 3.854,2.528 7.381,4.579 4.158,2.476 8.131,4.526 11.921,6.161 0.79,0.052 6.053,-0.659 15.791,-2.132 l 0.079,0.865 c -2.79,2.107 -4.58,2.978 -5.369,2.605 -1.106,0.105 -1.448,0.922 -1.026,2.451 0.315,0.684 0.895,1.157 1.736,1.42 l 1.027,1.185 2.921,1.736 c 1.105,0.315 2.158,0.315 3.158,0 0.948,-0.368 1.58,-1.186 1.895,-2.447 l 0.311,-0.312 3.164,-3.163 2.289,-1.735 c 1.79,-0.315 2.948,-0.946 3.475,-1.896 0.105,-0.842 0.342,-1.367 0.71,-1.578 l 2.764,-1.896 c 0.105,-0.263 1.237,0.186 3.396,1.343 1.053,0.263 1.974,0.21 2.764,-0.158 l 2.053,-1.185 c 1.843,0.424 5.079,2.714 9.712,6.872 -0.053,0.474 0.237,1.023 0.868,1.658 0.368,0.474 1.369,0.866 3.001,1.182 l 1.104,2.055 1.106,0.396 c 1.63,0.053 3.157,-0.529 4.579,-1.739 l 1.737,-0.554 c 0.895,-0.684 1.29,-1.368 1.186,-2.052 l -0.712,-0.712 -1.501,-0.393 c -1.896,-0.897 -3.814,-2.106 -5.763,-3.632 l -1.264,-0.95 c 5.738,1.003 12.869,1.791 21.398,2.37 1.052,0.21 2.46,-0.33 4.224,-1.62 1.763,-1.287 7.093,-5.091 15.989,-11.409 1.317,-1.42 2.369,-3.051 3.158,-4.895 -0.789,-0.736 -1.487,-1.788 -2.092,-3.159 -0.604,-1.367 -0.987,-2.524 -1.145,-3.475 -0.211,-0.895 -0.237,-1.697 -0.079,-2.409 0.157,-0.708 -0.079,-1.381 -0.71,-2.013 -0.265,-0.368 -0.87,-0.603 -1.816,-0.708 -1.685,-0.157 -3.58,-0.133 -5.686,0.077 -1.001,-0.105 -1.579,-0.34 -1.737,-0.712 l 0.079,-1.893 c 0.158,-0.842 -0.079,-1.21 -0.71,-1.104 -2.317,0.578 -3.712,1.156 -4.187,1.735 -0.684,0.736 -0.657,1.525 0.081,2.37 0.578,0.525 0.867,1.129 0.867,1.816 -0.315,3.475 -0.604,5.816 -0.867,7.026 -3.845,3.054 -6.45,4.923 -7.819,5.606 -1.104,0.368 -3.578,0.21 -7.421,-0.474 -0.843,-0.736 -1.448,-2.002 -1.816,-3.79 1.315,-0.789 2.711,-1.739 4.185,-2.844 1,-0.157 1.843,-0.354 2.526,-0.593 0.686,-0.234 1.027,-0.88 1.027,-1.935 0.684,-0.264 1.184,-0.842 1.499,-1.736 l 4.581,-5.525 c 1.473,-1.266 3.078,-2.002 4.815,-2.213 2.105,-0.157 4.844,-1.343 8.212,-3.552 0.527,-0.582 0.527,-1.396 0,-2.45 1.001,-0.579 2.633,-2.209 4.896,-4.896 0.894,-1.262 1.104,-2.657 0.631,-4.183 2.105,-2.528 3.291,-4.526 3.554,-6.003 0.21,-1.314 0.184,-2.738 -0.079,-4.263 0.999,-0.632 1.697,-1.172 2.094,-1.62 0.395,-0.445 0.591,-1.066 0.591,-1.855 0,-0.788 -0.29,-1.447 -0.868,-1.974 1.529,-2.152 1.713,-4.1 0.554,-5.837 z m -73.564,-63.01 c 0,1 -0.5,2.105 -1.711,3.316 -1.843,1.685 -4.043,3.238 -6.807,4.659 -2.764,1.422 -6.465,3.105 -10.465,5.053 v -0.473 c 5,-4 10.03,-7.264 14.61,-9.792 1.211,-0.737 0.739,-0.947 -0.682,-0.632 -1.58,0.79 -3.29,1.764 -5.184,2.922 -3.159,2.053 -6.225,4.08 -9.225,6.08 l 0.085,-0.948 c 6.001,-5.264 10.926,-8.658 14.769,-10.186 1.896,-0.42 3.504,-0.42 4.61,0.001 z m -17.91,1.895 c 2.869,-2.369 6.303,-4.211 10.304,-5.528 1.948,-0.526 3.632,-0.763 5.053,-0.71 0.685,0.158 0.869,0.552 0.553,1.184 l -1.737,2.29 c -1.527,0.211 -3.619,1.08 -6.277,2.606 -2.659,1.527 -5.515,3.554 -8.567,6.08 l -1.105,0.711 c -0.579,-0.422 -1.632,-0.237 -3.158,0.552 4.843,-4.053 9.054,-7.133 12.634,-9.238 2.316,-1.158 3.658,-1.974 4.027,-2.448 -1.159,0.316 -2.79,1.041 -4.896,2.172 -2.106,1.131 -5.58,3.487 -10.423,7.066 l -4.659,4.185 c 2.631,-3.579 5.382,-6.553 8.251,-8.922 z m -4.856,8.765 c 0.842,-0.475 1.421,-0.659 1.737,-0.553 0.21,0.527 0.263,1.25 0.158,2.172 -0.105,0.922 -0.79,2.856 -2.054,5.803 l -2.921,5.686 c -2.053,0.263 -4,1.211 -5.843,2.843 0.948,-1.631 2.093,-3.5 3.435,-5.606 1.343,-2.105 3.435,-5.264 6.278,-9.475 0.473,-0.79 0.487,-0.987 0.04,-0.592 -0.448,0.396 -1.646,1.908 -3.593,4.541 -1.948,2.631 -4.553,6.712 -7.817,12.238 -0.895,1.369 -3.041,4.667 -6.581,10.097 l 0.432,-1.224 4.744,-8.399 4.563,-8.528 c 2.157,-3.845 4.632,-6.845 7.422,-9.003 z m -19.346,19.344 c 2.105,-3.421 4.633,-8.264 7.581,-14.528 0.895,-1.843 2.21,-3.922 3.948,-6.237 0.526,-1.212 0.237,-1.186 -0.869,0.079 -2.579,3.211 -5.58,8.291 -9.001,15.239 l 1.5,-3.79 c 0.264,-0.842 1.106,-2.75 2.527,-5.725 1.421,-2.974 2.816,-5.33 4.185,-7.067 1.369,-1.737 2.316,-2.869 2.843,-3.395 1.895,-1.632 3,-2.395 3.316,-2.291 0.263,0.211 0.342,0.553 0.237,1.026 l -3.869,9.95 c -2.527,4.895 -5.843,10.001 -9.949,15.317 -1.737,1.896 -2.816,3.106 -3.238,3.633 -0.42,0.526 -0.762,1.026 -1.026,1.5 l 0.316,-1.342 z m 2.133,9.003 c -1.106,2.053 -1.949,3.895 -2.527,5.527 l -0.632,-0.079 1.658,-5.132 z m -5.843,13.422 0.552,-2.29 0.474,-2.29 1.263,-0.238 -1.58,4.265 -1.105,3.71 z m -0.317,-8.606 c 0.369,-2.369 0.869,-4.527 1.5,-6.474 l 0.632,0.79 z m -3,15.712 -0.315,-0.631 c -0.315,-0.474 0.236,-3.554 1.658,-9.239 -0.527,4.212 -0.974,7.502 -1.343,9.87 z m -1.184,-4.5 c -0.422,-2.158 -0.171,-6.699 0.75,-13.621 0.921,-6.922 2.092,-11.857 3.513,-14.805 0.685,-1.526 0.658,-1.764 -0.079,-0.711 -3.211,5.475 -5.08,13.555 -5.605,24.241 -0.106,3.737 0.105,6.435 0.631,8.093 0.527,1.658 1.132,2.619 1.816,2.882 0.368,0.21 0.763,0.184 1.187,-0.079 -0.048,-0.014 -0.299,1.419 -0.245,1.736 -1.41,-0.633 -2.445,-1.704 -3.074,-3.197 -0.632,-1.5 -1.224,-3.46 -1.777,-5.883 -0.553,-2.421 -0.776,-5.316 -0.671,-8.685 0.264,-4 0.842,-7.896 1.737,-11.687 1.316,-5.264 4,-10.264 8.054,-15.002 0.895,-1 1.448,-1.237 1.659,-0.711 0.21,2.105 0.197,4.145 -0.04,6.119 -0.237,1.974 -0.75,4.171 -1.54,6.594 -2.054,6.843 -3.29,11.448 -3.711,13.818 -0.789,2.792 -1.658,6.423 -2.605,10.898 z m 2.34,7.581 v -1.264 c 2,-2.158 1.765,-4.211 2.501,-6.159 l 2.773,-7.106 3.22,-7.501 c 1.737,-3.369 4.189,-7.211 7.295,-11.528 1.842,-2.157 3.49,-3.316 4.91,-3.474 0.37,0.527 0.377,1.606 0.008,3.237 -0.368,1.632 -0.997,3.343 -1.892,5.132 -0.06,0.022 -0.133,0.054 -0.052,0.098 -3.403,6.267 -6.702,10.813 -9.896,13.641 l 5.446,-8.844 2.6,-4.737 c 1,-1.79 1.172,-2.422 0.54,-1.895 -5.316,8.001 -8.526,13.028 -9.579,15.081 -1.053,2.053 -2.13,3.974 -3.129,5.764 -1.001,1.79 -2.007,3.185 -2.322,4.185 -0.315,1 -0.423,2.79 -2.423,5.37 z m 21.189,3.237 c -0.158,2.369 -0.685,5.317 -1.579,8.844 -0.053,-2.896 -0.184,-4.844 -0.395,-5.845 l 0.711,-1.973 c 0.053,-0.685 -0.08,-0.711 -0.396,-0.079 l -0.473,0.867 -0.079,-1.578 1.184,-1.501 c 0.79,-0.788 1.133,-0.368 1.027,1.265 z m -1.184,-4.264 c 0.684,-0.158 0.815,0.158 0.395,0.947 l -1.5,2.211 c -0.105,-0.895 -0.237,-1.658 -0.395,-2.291 0.527,-0.367 1.026,-0.656 1.5,-0.867 z m -6.238,3.711 c 1.105,-4.369 2.158,-6.685 3.158,-6.948 0.58,1.527 1.054,4.356 1.422,8.488 0.368,4.134 0.368,7.857 0,11.175 -0.474,4.211 -1.184,7.051 -2.132,8.527 l -1.026,2.208 c 0,-3.264 0.04,-5.922 0.118,-7.973 0.079,-2.055 0.158,-4.779 0.237,-8.173 0.079,-3.396 0.302,-7.252 0.671,-11.568 0.21,-1.053 0.158,-1.289 -0.158,-0.71 -0.843,4.37 -1.343,9.975 -1.501,16.819 l -0.079,4.499 -0.158,6.16 -1.026,-1.186 c -0.737,-3.685 -1.053,-7.552 -0.948,-11.605 0.159,-3.002 0.633,-6.238 1.422,-9.713 z m -6.988,13.226 c 0.869,-3.871 2.855,-7.882 5.961,-12.042 -0.526,2.158 -0.816,3.764 -0.869,4.815 -2.316,4.001 -4.106,7.977 -5.369,11.925 -0.315,1.21 -0.579,2.657 -0.79,4.341 -0.156,-2.156 0.199,-5.172 1.067,-9.039 z m 5.173,6.592 -1.737,-2.209 1.263,-3.159 c -0.053,1.735 0.105,3.527 0.474,5.368 z m 15.949,32.611 1.105,-3.159 3.632,2.37 z m 8.685,-1.578 -5.922,-3.555 -5.448,-3.633 -1.026,-1.343 c -0.316,-0.368 -0.75,-0.445 -1.303,-0.235 -0.553,0.211 -0.987,-0.105 -1.304,-0.946 -1.421,0.841 -2.869,0.525 -4.342,-0.95 l -2.606,-3.156 -2.447,-4.186 -0.869,-0.632 c -0.499,0.319 -1.052,0.432 -1.657,0.344 -1.03,-0.137 -2.211,-0.82 -3.396,-2.079 -0.737,-0.688 -2.317,-3.397 -4.738,-8.135 -3.21,-6.107 -5.395,-10.711 -6.553,-13.817 -0.842,-2.581 -1.395,-4.211 -1.658,-4.895 -0.264,-0.685 -0.369,-0.698 -0.317,-0.041 0.053,0.658 0.448,2.134 1.185,4.424 0.736,2.289 2.105,5.645 4.106,10.066 1.736,3.579 3.448,6.844 5.132,9.789 -3.896,-4.211 -6.712,-8.159 -8.449,-11.844 -1.737,-3.633 -2.896,-6.999 -3.474,-10.105 -0.263,-1.106 -0.422,-2.805 -0.475,-5.094 -0.052,-2.289 -0.026,-3.565 0.079,-3.83 0.263,-0.79 0.632,-1.131 1.106,-1.026 0.315,0 1.04,0.75 2.171,2.25 1.132,1.5 2.671,4.87 4.619,10.108 1.948,5.234 3.145,8.671 3.593,10.305 0.448,1.63 0.895,3.051 1.342,4.264 0.448,1.209 0.987,2.447 1.619,3.709 0.947,1.894 1.895,3.184 2.843,3.871 1.249,0.884 2.16,1.041 2.759,0.467 l -2.888,-5.165 c -0.262,-0.115 -0.558,-0.137 -0.898,-0.042 -0.058,0.004 -0.093,-0.018 -0.147,-0.018 -0.003,0 -0.004,0.021 -0.005,0.021 -0.121,-0.004 -0.205,-0.046 -0.311,-0.063 -0.119,-0.021 -0.252,-0.031 -0.351,-0.073 -0.093,-0.039 -0.153,-0.116 -0.228,-0.176 -0.089,-0.07 -0.191,-0.126 -0.255,-0.225 -0.058,-0.088 -0.079,-0.214 -0.116,-0.322 -0.038,-0.112 -0.094,-0.207 -0.11,-0.34 -0.034,-0.267 -0.027,-0.579 0.023,-0.937 0.105,-0.946 0.448,-2.577 1.026,-4.895 1.159,-3.896 2.816,-7.763 4.975,-11.605 -0.263,1.683 -0.395,3.103 -0.395,4.264 -1.948,4.368 -3.369,7.896 -4.264,10.578 -0.474,1.949 -0.448,2.896 0.079,2.844 l 0.631,-0.316 -0.473,-1.104 0.315,-0.869 0.948,1.658 0.553,-0.396 0.474,0.711 -0.474,0.712 3.553,5.13 0.869,-0.708 0.632,0.708 c -1.053,1.056 -1.475,1.739 -1.264,2.055 0.949,1.735 1.816,3.131 2.606,4.187 1.58,2.313 2.869,2.973 3.869,1.974 0.315,-0.263 0.711,-0.21 1.184,0.158 0.474,0.368 1.001,1.157 1.58,2.366 l -0.079,-1.816 -2.921,-2.763 -1.659,-3.316 c -1.369,-1.946 -2.342,-3.447 -2.921,-4.499 -0.579,-1.055 -1.303,-2.317 -2.171,-3.79 -0.868,-1.476 -1.934,-3.135 -3.197,-4.976 l 0.237,-0.869 2.527,3.078 c 2.264,2.896 3.855,5.095 4.776,6.596 0.921,1.5 1.461,1.854 1.619,1.065 l 0.474,-1.5 0.71,0.396 -0.473,3.079 -0.158,0.946 c -0.054,0.736 0.092,1.171 0.434,1.305 0.342,0.129 0.645,0.617 0.908,1.458 0.158,0.526 0.987,1.62 2.488,3.278 1.5,1.658 3.079,3.054 4.737,4.184 1.659,1.132 3.027,2.055 4.106,2.766 1.08,0.709 1.593,1.406 1.54,2.09 l 1.5,0.315 -0.394,-1.893 0.947,-0.239 c 0.474,0.316 0.869,0.898 1.185,1.739 1.369,1.052 2.553,1.894 3.553,2.524 z m -25.898,-25.662 0.475,-0.473 2.21,3.709 -0.238,0.474 z m 3.711,7.423 0.869,-1.108 2.053,2.925 1.185,2.132 0.395,1.182 c -0.736,-0.368 -1.368,-0.919 -1.896,-1.658 l -1.263,-1.655 z m 27.478,17.289 -3.396,-2.366 c -1.368,-1.634 -2.368,-2.815 -3,-3.556 -0.631,-0.736 -1.237,-1.263 -1.815,-1.578 -0.844,-0.473 -1.527,-0.631 -2.054,-0.473 -0.368,0.104 -0.762,0.631 -1.184,1.577 l -0.158,-0.157 c 0.21,-0.895 0.54,-1.448 0.987,-1.659 0.447,-0.21 1.014,-0.157 1.698,0.158 l 3.789,1.816 6.475,2.447 c 1.58,1.687 2.553,2.844 2.921,3.475 -1.315,0.159 -2.737,0.263 -4.263,0.316 z m 2.053,16.504 c -2.211,2.16 -4.711,4.211 -7.501,6.16 l -0.948,-0.315 c 1.632,-1.003 3.948,-2.633 6.949,-4.898 l 1.343,-1.5 -0.711,-0.077 c -1,0.894 -2.145,1.802 -3.435,2.724 -1.29,0.923 -2.776,1.803 -4.461,2.645 l -2.291,1.107 0.396,0.474 1.737,0.234 c 1,0.632 1.421,1.267 1.263,1.897 -0.527,0.789 -1.369,0.894 -2.526,0.315 l -1.895,-1.027 c -0.685,-0.684 -1.369,-1.157 -2.053,-1.42 l -0.79,-0.631 0.315,-0.717 2.369,1.022 h 0.711 l -0.395,-1.496 2.843,-1.773 c 0.736,-0.262 1.053,-0.73 0.947,-1.361 l 0.237,-1.432 c 1.21,0.263 2.526,0.059 3.948,-0.597 1.421,-0.659 2.763,-1.042 4.026,-1.147 0.791,0.526 0.764,1.129 -0.078,1.813 z m 33.005,-123.019 0.159,-1.816 -1.501,0.315 c -1.421,0.475 -2.843,0.053 -4.263,-1.263 -0.949,0.158 -1.344,-0.21 -1.186,-1.105 0.368,-0.79 0.263,-1.21 -0.315,-1.263 l -2.29,0.237 c -1.475,-0.21 -2.447,-0.632 -2.922,-1.263 -0.316,-0.527 -0.105,-1.185 0.633,-1.974 -1.422,-0.58 -2.304,-1.21 -2.646,-1.895 -0.342,-0.685 -0.132,-1.237 0.631,-1.659 0.763,-0.42 2.172,-0.5 4.226,-0.236 -0.474,-0.58 -0.607,-1.185 -0.395,-1.816 0.052,-0.631 1.42,-0.289 4.105,1.026 l 1.578,0.948 c 0.422,-0.79 1.132,-1.026 2.133,-0.711 1.21,0.579 2.343,1.277 3.395,2.092 1.054,0.816 2.236,1.987 3.554,3.514 1.105,-0.737 1.895,-0.579 2.368,0.473 l 0.236,1.895 c -1.157,-1.105 -2.578,-1.184 -4.264,-0.236 l -1.104,-0.474 c -1.526,-1.842 -2.448,-3.238 -2.765,-4.186 -0.315,-1.21 -0.473,-1.315 -0.473,-0.315 0.053,1.053 0.684,2.396 1.895,4.027 -2.315,-0.736 -4.015,-1.684 -5.093,-2.843 -1.079,-1.158 -1.909,-2.131 -2.487,-2.921 -0.578,-0.947 -0.815,-0.947 -0.71,0 0.631,1.159 1.501,2.238 2.604,3.238 -0.841,-0.369 -1.632,-0.737 -2.368,-1.106 -1.843,-0.789 -3.369,-1.21 -4.579,-1.263 -0.58,0 -0.606,0.105 -0.079,0.315 2.054,0.527 3.54,1.014 4.46,1.461 0.923,0.448 1.541,0.855 1.857,1.224 -1.475,0.632 -3.002,0.921 -4.581,0.869 -1,-0.053 -1.446,-0.026 -1.342,0.079 0.105,0.105 0.421,0.211 0.947,0.315 1.895,0.211 3.816,10e-4 5.764,-0.631 1.422,0.737 3.08,1.447 4.976,2.132 -1.159,0.263 -2.291,0.79 -3.396,1.58 -0.421,0.526 -0.211,0.552 0.631,0.079 0.843,-0.632 2.105,-1.027 3.79,-1.185 l 1.343,0.552 c -0.104,1.422 0.237,2.869 1.026,4.344 l -0.868,0.315 z m 9.003,8.446 c -2.949,0.053 -3.542,-0.019 -3.71,-0.472 -0.11,-0.35 -0.172,-0.67 0.866,-1.263 l 0.533,-0.896 c -1.713,-0.783 -3.294,-1.713 -3.377,-3.841 l 1.422,-0.553 c 0.631,-0.736 0.646,-1.29 0.04,-1.658 -0.606,-0.369 -0.936,-1.343 -0.988,-2.921 0.58,-1.263 2,-1.263 4.266,0 0.999,-1.948 2.21,-2.527 3.63,-1.737 -1.524,0 -2.421,0.658 -2.684,1.974 -0.158,0.842 -0.158,1.869 0,3.08 -0.526,-0.737 -1.159,-1.368 -1.896,-1.895 -1.422,-0.736 -1.685,-0.658 -0.789,0.236 0.895,0.895 1.686,1.816 2.369,2.764 -1.159,0.947 -2.421,1.369 -3.79,1.264 -0.474,0.21 -0.395,0.342 0.236,0.395 0.631,0.158 1.369,0.105 2.211,-0.158 -0.105,0.842 0.172,2.24 0.54,3.081 0.499,0.719 1.165,1.354 1.947,1.931 -0.367,0.105 -0.668,0.301 -0.826,0.669 z m 1.657,1.503 c -0.053,-0.632 0.5,-0.987 1.658,-1.066 1.157,-0.079 1.342,-0.408 0.553,-0.987 -1.527,-0.527 -2.789,-1.422 -3.79,-2.685 -0.684,-0.895 -0.684,-1.526 0,-1.895 l 1.185,-0.315 0.553,-0.711 -0.71,-2.764 c -0.211,-1.421 0.184,-2.421 1.183,-3 1.422,-0.21 2.817,0.211 4.185,1.264 0.053,-0.737 0.541,-0.96 1.463,-0.671 0.92,0.29 1.775,2.25 2.564,5.883 l 1.264,0.473 c 0.421,-1 0.763,-1.5 1.027,-1.5 0.421,0 0.842,0.868 1.263,2.606 1.054,0.947 1.554,2.5 1.501,4.658 -0.684,0.895 -1.054,2 -1.104,3.317 l -0.633,-1.422 c -0.368,-1.579 -0.526,-3.237 -0.474,-4.974 -0.053,-0.736 -0.132,-0.736 -0.236,0 -0.158,1.527 -0.185,2.816 -0.079,3.869 -1.422,-1.843 -2.949,-3.5 -4.581,-4.975 -0.315,-1.158 -0.421,-2.474 -0.315,-3.948 -0.158,-1.263 -0.289,-1.552 -0.395,-0.869 -0.105,1.58 -0.053,3.053 0.157,4.422 -1.211,-1.21 -2.631,-2.974 -4.264,-5.291 -0.42,-0.736 -0.604,-0.894 -0.552,-0.473 0.999,1.895 2.053,3.474 3.157,4.738 1.106,1.263 2,2.263 2.686,3 -1.369,-0.422 -2.554,-0.698 -3.553,-0.829 -1.002,-0.132 -1.922,-0.409 -2.764,-0.83 -0.79,-0.158 -0.764,0.026 0.077,0.552 0.476,0.316 1.437,0.606 2.883,0.869 1.448,0.264 2.803,0.711 4.067,1.343 0.684,0.42 1.605,1.5 2.763,3.237 l 0.948,2.132 c -1.475,-0.789 -3.106,-1.342 -4.896,-1.658 -1.788,-0.316 -2.842,-0.605 -3.157,-0.869 -1.369,-0.579 -1.527,-0.526 -0.474,0.159 0.315,0.315 1.434,0.67 3.355,1.065 1.922,0.395 3.776,1.145 5.566,2.25 l 0.157,0.473 c -0.368,0.422 -0.499,1.001 -0.395,1.737 l 0.553,1.58 c -0.474,-0.58 -1.131,-0.315 -1.974,0.79 0.315,-0.685 0.236,-1.316 -0.237,-1.895 -0.736,-1.105 -2.526,-2.29 -5.37,-3.553 l -0.473,0.869 c -2.316,-0.738 -3.763,-2.106 -4.342,-4.106 z m 19.226,39.361 c -0.552,-0.816 -1.343,-2.066 -2.368,-3.751 -1.025,-1.685 -1.776,-3.053 -2.251,-4.105 -0.474,-1.053 -0.553,-2.132 -0.237,-3.237 0.315,-1.106 0.579,-1.948 0.791,-2.527 0.21,-0.579 0.184,-0.685 -0.079,-0.316 -0.633,1.105 -1.08,2.185 -1.343,3.237 l -1.579,-4.501 c 0.157,-1.789 1.105,-4.078 2.843,-6.868 0.526,-0.948 0.474,-1.027 -0.159,-0.238 -1.578,2.105 -2.605,4.238 -3.078,6.396 l -2.447,-5.448 c -0.053,-1 0.578,-2.896 1.895,-5.685 0.684,-1.475 0.526,-1.422 -0.475,0.158 -0.842,1.579 -1.446,3.053 -1.816,4.421 -0.736,-3 -1.446,-5.554 -2.132,-7.659 l -0.553,-0.158 0.316,0.869 c 0.42,2.632 1.001,4.922 1.737,6.87 -1,-0.895 -2.132,-1.632 -3.395,-2.21 -0.686,-0.368 -0.686,-0.29 0,0.237 1.525,0.895 2.685,1.79 3.473,2.685 0.632,1.474 1.212,2.816 1.737,4.027 -0.946,-0.685 -2.552,-1.473 -4.815,-2.369 -0.843,-0.158 -0.843,-0.053 0,0.316 2.842,1.158 4.605,2.29 5.289,3.395 l 1.58,4.185 c -0.579,0 -1.343,-0.868 -2.29,-2.605 -0.791,-1.475 -2.765,-2.896 -5.922,-4.265 -0.631,-0.263 -0.922,-0.815 -0.868,-1.658 0.105,-0.579 0.71,-0.816 1.816,-0.711 -0.317,-0.895 -0.686,-1.605 -1.106,-2.132 l -0.631,-0.947 c -0.843,-1.737 -0.344,-2.605 1.499,-2.606 -0.684,-1.053 -0.921,-1.868 -0.71,-2.447 -0.053,-1 0.184,-1.974 0.71,-2.922 0.315,-0.632 0.554,-1.263 0.712,-1.895 0.999,0.58 1.907,1.066 2.725,1.46 0.814,0.396 1.25,1.119 1.302,2.171 l -0.394,2.448 c 0.157,0.474 0.578,0.315 1.262,-0.474 0.684,-0.947 1.237,-1.5 1.658,-1.658 0.579,0.263 1.133,0.737 1.658,1.421 0.526,1 0.342,2.843 -0.552,5.527 l -0.869,2.211 c 1.79,-2.369 3.237,-3.5 4.342,-3.395 0.368,0.263 0.487,0.803 0.356,1.618 -0.132,0.816 -0.132,1.671 0,2.566 0.131,0.895 -0.172,1.659 -0.908,2.29 -0.736,0.632 -1.238,1.658 -1.501,3.079 1.685,-1.263 2.368,-1.026 2.053,0.711 l -0.946,3.396 c -0.264,1.631 0,2.395 0.789,2.29 0.79,-0.105 1.276,0 1.462,0.315 0.183,0.315 0.223,0.869 0.117,1.659 -0.474,1.105 -0.684,1.829 -0.631,2.171 0.053,0.342 0.196,0.632 0.433,0.869 0.238,0.237 0.751,0.184 1.541,-0.158 0.789,-0.342 1.184,-0.105 1.184,0.71 0,0.817 0.014,1.606 0.04,2.37 0.026,0.763 0.275,1.514 0.751,2.25 0.368,0.527 0.841,0.869 1.42,1.026 l 0.712,-0.869 c -1.054,0.053 -1.541,-0.631 -1.461,-2.053 0.077,-1.421 0.065,-2.526 -0.04,-3.316 -0.421,-1 -0.842,-1.553 -1.264,-1.659 -0.421,-0.105 -1.395,-2.737 -2.921,-7.896 l 1.658,0.079 c 1.21,4.422 2.185,6.804 2.921,7.146 0.736,0.342 1.08,0.736 1.027,1.184 -0.053,0.447 0.079,1.408 0.395,2.882 0.946,-0.264 1.5,-1.132 1.658,-2.606 0.263,-1.369 -0.132,-2.421 -1.186,-3.158 -1.104,-0.632 -1.737,-1.21 -1.895,-1.738 -0.315,-0.895 0.026,-1.447 1.027,-1.658 0.578,-0.315 -0.817,-1.579 -4.185,-3.789 -1.737,-1.212 -2.266,-2.291 -1.58,-3.238 0.263,-0.473 0.751,-0.46 1.461,0.04 0.71,0.5 1.171,0.619 1.381,0.356 0.368,-0.737 0.079,-1.251 -0.867,-1.54 -0.949,-0.29 -1.396,-0.619 -1.343,-0.987 -0.053,-1.631 -0.027,-2.736 0.078,-3.316 0.105,-0.58 0.053,-1.263 -0.157,-2.053 -0.579,-0.842 -1.685,-0.79 -3.317,0.158 0.37,-0.895 0.461,-1.764 0.277,-2.606 -0.185,-0.842 -0.593,-1.658 -1.224,-2.448 l -0.789,-2.448 c -0.212,-0.843 0.263,-1.421 1.42,-1.737 -0.368,-1.632 -0.368,-2.79 0,-3.475 0.368,-0.737 0.633,-1.342 0.791,-1.816 0.157,-0.474 0.631,-0.526 1.42,-0.158 0.79,0.368 2.053,1.763 3.79,4.185 0.844,-0.948 1.658,-0.605 2.449,1.026 0.946,1.474 1.314,3.238 1.104,5.291 1.947,-1.053 2.631,-0.343 2.053,2.132 0.843,1.737 1.355,3.092 1.539,4.066 0.185,0.974 0.026,1.882 -0.474,2.725 -0.499,0.841 -0.736,1.486 -0.71,1.935 0.026,0.447 0.211,0.434 0.553,-0.04 0.342,-0.474 1.04,-0.869 2.093,-1.185 0.684,1.474 0.974,2.448 0.868,2.921 0,0.58 -0.356,1.211 -1.065,1.895 -0.711,0.685 -1.119,1.501 -1.225,2.448 0,0.474 0.237,0.71 0.711,0.71 l 1.421,-0.395 c 0.736,-0.105 0.763,0.474 0.079,1.737 -0.736,1.368 -1.276,2.526 -1.618,3.474 -0.342,0.948 -0.514,1.711 -0.514,2.291 -0.053,1.21 -0.263,1.921 -0.631,2.132 0.105,-1.527 0.064,-3.119 -0.119,-4.777 -0.185,-1.659 -0.514,-3.513 -0.987,-5.567 0.421,-0.368 1.001,-1.605 1.737,-3.711 0.368,-1.052 0.29,-1.184 -0.236,-0.395 -0.579,1.58 -1.159,2.553 -1.737,2.921 -0.578,-1.947 -1.212,-4.316 -1.896,-7.106 0.789,-1.316 1.29,-2.974 1.501,-4.975 0.053,-1.685 -0.053,-1.816 -0.315,-0.395 -0.317,2.001 -0.896,3.553 -1.737,4.659 -0.686,-2.21 -1.422,-4.29 -2.211,-6.238 0.263,-1.105 0.368,-2.395 0.315,-3.869 -0.053,-1.473 -0.184,-1.526 -0.395,-0.158 0,1.105 -0.133,2.053 -0.396,2.843 l -1.736,-4.422 -1.105,-2.526 c -0.368,-0.842 -0.5,-0.842 -0.395,0 l 1.025,3.316 c -0.789,-0.895 -1.527,-1.552 -2.211,-1.974 -0.684,-0.42 -0.815,-0.395 -0.395,0.079 1.159,1 2.158,2.079 3,3.237 0.686,1.685 1.369,3.422 2.055,5.212 -2.002,-1.685 -3.396,-2.632 -4.187,-2.842 -0.999,-0.369 -0.999,-0.184 0,0.552 1.422,0.895 3.106,2.475 5.054,4.738 0.632,1.842 1.236,3.632 1.816,5.37 -1.001,-0.58 -2.211,-1.737 -3.633,-3.475 -0.631,-0.631 -0.657,-0.526 -0.078,0.315 1.158,1.737 2.5,3.264 4.026,4.58 l 1.186,4.816 c -1.212,-1.21 -2.791,-2.448 -4.739,-3.711 -0.841,-0.526 -0.894,-0.421 -0.157,0.315 1.685,1.211 3.448,3.001 5.291,5.37 0.525,1.475 0.763,4.185 0.71,8.133 -0.053,1 -0.789,1.737 -2.211,2.21 l -0.315,3.791 -1.974,0.079 c -1.051,-1.472 -1.855,-2.617 -2.407,-3.433 z m 2.575,3.703 c 0.315,-0.105 1.025,-0.018 1.709,-0.018 -0.736,4 -1.586,8.383 -2.27,11.119 l -1.106,-0.631 c 0.949,-3.79 1.458,-8.048 1.667,-10.47 z m -14.024,22.511 c -0.29,-0.235 -1.172,-0.961 -2.644,-2.171 -1.317,-1.156 -1.738,-2.208 -1.265,-3.158 -0.368,-0.474 -0.697,-1.027 -0.987,-1.659 -0.289,-0.631 -0.224,-1.248 0.198,-1.854 0.421,-0.606 1.394,-0.329 2.921,0.831 0.263,-0.897 0.263,-1.739 0,-2.528 -0.263,-0.789 -0.578,-1.577 -0.946,-2.37 -0.686,-1.262 -1.343,-2.342 -1.975,-3.236 -0.58,-1.21 -0.712,-1.895 -0.396,-2.053 0.315,-0.158 0.816,0.053 1.5,0.632 1.316,-1.421 2.185,-1.829 2.605,-1.224 0.422,0.605 0.765,1.619 1.027,3.04 0.263,1.422 0.289,2.895 0.079,4.423 l -0.315,0.316 0.315,0.315 c 0.104,0.315 -0.026,1.5 -0.395,3.552 0,0.421 0.131,0.845 0.395,1.266 -0.105,-0.635 -0.132,-1.108 -0.079,-1.424 0.053,-0.263 0.225,-0.88 0.514,-1.854 0.289,-0.974 0.433,-1.525 0.433,-1.658 0,-0.13 0.017,-0.225 -0.404,-0.277 0.473,-0.158 0.55,-0.382 0.682,-0.67 0.132,-0.291 0.157,-0.578 0.079,-0.869 -0.079,-0.288 -0.132,-1.119 -0.158,-2.486 -0.026,-1.369 -0.157,-2.409 -0.395,-3.12 -0.236,-0.71 -0.382,-1.263 -0.435,-1.658 -0.053,-0.395 -0.368,-0.618 -0.946,-0.671 -0.581,-0.052 -1.396,0.527 -2.449,1.737 0.475,-2.263 0.961,-3.777 1.462,-4.54 0.5,-0.764 1.013,-0.987 1.539,-0.671 0.526,0.315 0.868,0.658 1.025,1.026 0.158,0.368 0.396,0.302 0.712,-0.197 0.315,-0.5 0.578,-0.671 0.789,-0.514 0.21,0.159 0.435,0.474 0.672,0.947 0.236,0.475 0.408,0.974 0.514,1.501 0.104,0.526 0.196,1.486 0.274,2.882 0.079,1.395 -0.091,2.329 -0.512,2.803 -0.423,0.475 -0.633,1.054 -0.633,1.737 0.105,2.738 0.315,4.092 0.633,4.067 0.315,-0.028 0.696,-0.239 1.145,-0.632 0.447,-0.396 0.842,-0.54 1.184,-0.435 0.342,0.105 0.54,0.87 0.593,2.29 0.053,1.42 0.184,1.567 0.395,0.435 0.21,-1.133 0.606,-1.697 1.185,-1.697 0.579,0 0.685,1.525 0.315,4.579 -2.053,1.841 -3.526,3.369 -4.421,4.579 -0.315,-1.314 -0.329,-2.236 -0.04,-2.763 0.289,-0.527 0.552,-1.118 0.79,-1.777 0.237,-0.659 0.434,-1.252 0.593,-1.778 0.421,-1.262 0.342,-1.367 -0.238,-0.315 -0.315,0.631 -0.593,1.186 -0.827,1.658 -0.238,0.474 -0.514,0.947 -0.829,1.424 -0.107,-0.845 -0.449,-2.346 -1.027,-4.502 -0.474,-1.473 -0.605,-1.448 -0.395,0.077 0.42,2.476 0.71,4.87 0.867,7.188 -0.894,-0.946 -1.802,-1.764 -2.724,-2.447 -0.921,-0.688 -1.724,-1.423 -2.407,-2.212 -0.58,-0.368 -0.686,-0.315 -0.315,0.157 0.631,0.842 1.565,1.83 2.801,2.963 1.238,1.129 1.988,1.88 2.251,2.248 0.264,0.371 0.421,0.687 0.474,0.95 -0.474,0.631 -1.025,1.29 -1.658,1.974 -0.368,-0.211 -0.579,-0.568 -0.631,-1.066 -0.054,-0.505 -0.226,-0.873 -0.515,-1.111 z m -28.306,28.859 c 0.631,-0.736 1.446,-1.392 2.447,-1.974 4.474,-2.209 7.448,-3.499 8.921,-3.867 0.264,-0.105 0.502,-0.028 0.712,0.234 l 0.631,0.793 -0.867,0.55 c -0.527,0.421 -1.186,0.607 -1.976,0.555 -0.685,-0.053 -1.604,0.172 -2.763,0.669 -1.157,0.502 -1.791,1.199 -1.896,2.094 -0.211,0.631 -0.5,1.027 -0.868,1.185 -1.158,0.632 -2.211,1.186 -3.159,1.659 l -2.447,-0.158 z m 6.711,2.629 h -0.395 l -0.011,-0.187 c -0.273,0.108 -0.556,0.136 -0.859,0.253 l -2.604,-0.362 2.763,-1.362 0.701,1.312 c 0.126,-0.053 0.242,-0.105 0.361,-0.154 l -0.351,-1.337 c -0.264,-0.894 0.053,-1.722 0.946,-2.251 0.843,-0.632 1.764,-0.951 2.765,-0.846 0.421,0.052 0.447,0.753 0.079,2.229 -0.267,0.621 -1.42,1.523 -3.439,2.368 z m -11.529,10.166 -0.395,-1.267 -2.131,2.687 -1.738,1.104 c -0.789,0.684 -1.605,0.946 -2.447,0.788 l -2.764,-1.339 1.421,-0.712 0.394,0.315 c -0.263,0.789 0.053,0.684 0.949,-0.315 l 2.447,-2.37 c 0.158,-1.42 -0.184,-3.25 -1.026,-5.487 -0.842,-2.237 -1.474,-3.643 -1.895,-4.225 -0.105,-0.474 -1.316,-0.579 -3.633,-0.316 1.369,-0.684 2.975,-0.736 4.817,-0.157 l 1.895,0.789 1.031,-0.438 -0.147,-0.141 -1.753,-0.841 0.948,0.08 0.805,0.761 0.223,0.105 -0.075,0.035 0.549,0.519 c 2.684,2.896 4.196,4.87 4.54,5.922 0.342,1.053 0.381,2.08 0.117,3.079 -0.999,1.319 -1.711,1.791 -2.132,1.424 z m 18.873,11.366 0.867,0.162 -0.315,0.393 -2.053,0.631 c -0.896,0.789 -1.948,1.318 -3.159,1.581 l -1.341,-0.238 -0.317,-0.946 c 0.317,-0.474 0.724,-0.817 1.225,-1.027 0.5,-0.211 1.146,-0.393 1.935,-0.555 l 1.895,0.319 z m -2.923,-0.435 c -1.422,0 -2.315,0.903 -2.685,0.903 h -1.105 c -1.527,-2 -2.736,-2.457 -3.631,-3.351 l -3.711,-3.138 c 0.684,-0.367 2.157,-0.129 4.421,0.503 z m 11.292,-16.499 c 1.526,0.13 2.684,0.066 3.475,-0.196 1.42,-0.579 4.342,-2.738 8.764,-6.476 4.264,-3.212 7.869,-5.449 10.818,-6.711 0.895,-0.526 0.935,-0.908 0.117,-1.146 -0.814,-0.235 -2.039,-0.354 -3.671,-0.354 -0.527,0.421 -0.475,0.765 0.158,1.027 0.736,-0.053 1.262,0 1.579,0.157 -3.527,1.841 -6.476,3.686 -8.844,5.526 0.21,-1.21 0.394,-3.289 0.552,-6.237 -0.053,-0.947 -0.368,-1.789 -0.946,-2.528 -0.368,-0.526 0.082,-0.999 1.451,-1.42 l 1.057,-0.315 v 1.735 l -1.451,-0.393 0.183,0.789 c 0.315,0.578 0.906,0.975 1.75,1.185 l 4.267,0.235 1.899,-0.077 c 2.211,0.053 3.293,0.592 3.24,1.619 -0.052,1.024 0.024,1.985 0.235,2.883 0.369,2.262 1.266,4.421 2.688,6.473 -0.315,0.946 -1,2.055 -2.052,3.316 l -4.108,2.686 c -3.525,2.524 -8.317,5.817 -14.371,9.87 -4.315,0.105 -9.5,-0.238 -15.555,-1.027 -4.369,-0.578 -9.395,-1.683 -15.08,-3.316 l -1.265,-0.315 0.553,-0.555 c 0.896,-1.156 1.383,-1.932 1.462,-2.328 0.079,-0.396 -0.072,-1.29 -0.416,-2.686 -0.342,-1.396 -0.979,-3.04 -2.979,-4.934 v -0.473 l 1.203,-0.158 c 3.265,0.211 6.183,0.631 8.734,1.263 2.553,0.631 5.597,1.209 9.124,1.735 3.422,0.634 5.902,1.013 7.429,1.146 z m -5.922,-2.094 c -1.369,-0.21 -3.58,-0.603 -6.634,-1.185 l 2.765,-0.946 c 1.474,0.315 2.315,0 2.525,-0.947 0.212,1.104 0.661,2.132 1.344,3.078 z m 16.502,-23.291 c -1.052,1.156 -1.396,2.366 -1.025,3.632 -1.475,0.789 -2.896,1.946 -4.264,3.475 -1.369,1.525 -2.409,2.815 -3.121,3.868 -0.71,1.052 -1.46,1.683 -2.249,1.896 -0.896,0.421 -1.921,0.21 -3.08,-0.635 l -0.315,1.975 -5.291,3.239 -2.605,1.104 c 0.211,-0.526 0.342,-1.42 0.395,-2.686 l 0.948,-0.789 c 3.633,-1.894 5.738,-3.633 6.316,-5.21 0.736,-1.318 1.527,-2.409 2.369,-3.278 0.843,-0.87 1.448,-1.936 1.815,-3.198 l 0.079,-1.894 -0.236,-1.974 c 0.842,0.946 1.605,1.157 2.289,0.631 1.106,-2.055 2.29,-3.962 3.554,-5.726 1.265,-1.764 2.605,-3.408 4.027,-4.933 1.422,-1.529 2.631,-2.819 3.632,-3.871 l -0.078,1.974 c -3.159,3.896 -5.134,6.554 -5.923,7.977 -2.684,4.054 -4.5,7.266 -5.448,9.632 -0.578,1.314 -1.422,2.37 -2.526,3.159 -0.843,0.421 -1.475,0.869 -1.895,1.343 -0.368,0.684 -0.158,0.866 0.631,0.551 0.525,-0.526 1.106,-0.919 1.737,-1.182 1.159,-0.582 3.632,-3.317 7.423,-8.212 l -0.079,-2.767 0.868,-1.5 c -0.053,1.528 0.078,2.37 0.395,2.527 0.315,0.158 0.75,-0.276 1.304,-1.304 0.552,-1.024 1.907,-3.854 4.065,-8.485 -0.474,1.42 -0.5,2.657 -0.079,3.71 -1.264,0.894 -1.605,2.423 -1.025,4.579 z m 17.728,-17.531 c -0.185,1.318 -0.619,2.451 -1.303,3.397 -2.16,2.472 -3.054,3.948 -2.687,4.421 0.579,1 0.474,2.132 -0.315,3.395 -1.158,1.424 -2.684,3.001 -4.579,4.736 0.526,1.056 0.132,1.95 -1.185,2.687 -1.527,0.841 -3.212,1.577 -5.053,2.212 3.421,-2.58 5.526,-5.344 6.316,-8.292 1.104,-0.999 2.079,-1.658 2.921,-1.974 0.738,-0.474 0.869,-0.684 0.396,-0.632 -0.949,0.368 -1.95,0.947 -3.002,1.736 1,-1.999 1.711,-4.159 2.132,-6.473 2.053,-2.002 3.344,-3.58 3.869,-4.74 0.736,-1.104 0.763,-1.34 0.079,-0.709 -0.789,1.315 -2,2.711 -3.633,4.184 0.738,-2.262 1.396,-4.79 1.975,-7.581 0.263,-1.63 0.184,-1.921 -0.237,-0.866 l -0.788,2.764 c -0.37,-1.104 -0.791,-1.95 -1.265,-2.528 l 1.027,3.316 c -0.212,1.315 -0.712,3.184 -1.5,5.606 -0.738,-2.104 -1.712,-4 -2.923,-5.683 -1.104,-1.371 -1.289,-1.396 -0.553,-0.081 1.212,1.739 2.211,4.028 3.002,6.868 -0.633,2.528 -1.369,4.632 -2.211,6.318 -0.633,-0.946 -1.29,-1.605 -1.976,-1.974 -0.526,-0.263 -0.526,-0.105 0,0.474 0.686,0.684 1.237,1.367 1.658,2.055 -0.631,1.524 -1.46,2.867 -2.485,4.024 -1.027,1.157 -2.041,2.132 -3.042,2.921 1.264,-1.946 1.685,-4.105 1.264,-6.473 0,-0.421 0.33,-0.764 0.987,-1.027 0.657,-0.263 0.882,-0.554 0.672,-0.869 -0.579,-1.157 -0.87,-2.079 -0.868,-2.763 0.421,-0.211 1.052,-0.211 1.894,0 0.686,-0.474 0.619,-1.146 -0.196,-2.013 -0.817,-0.87 -1.329,-2.121 -1.54,-3.752 0,-0.946 0.632,-1.29 1.896,-1.027 0.579,-0.053 0.631,-0.736 0.158,-2.051 l -1.343,-1.816 c -0.949,-2.107 -0.553,-2.868 1.185,-2.29 l 2.053,1.263 c 1.368,0.525 2.026,-0.396 1.975,-2.763 0,-0.526 0.406,-0.646 1.224,-0.358 0.814,0.291 1.565,-0.325 2.249,-1.854 0.686,-0.736 1.211,-0.053 1.579,2.055 -0.157,2.791 0.526,4.106 2.053,3.948 0.263,0.158 0.303,0.894 0.12,2.209 z m 2.368,-6.792 c 0.079,0.526 -0.04,0.961 -0.355,1.305 -0.316,0.34 -0.921,0.642 -1.816,0.904 l -0.868,-1.585 c 0.053,-1.262 -0.368,-2.482 -1.264,-3.641 0.368,-0.316 0.948,-0.65 1.737,-0.965 0.578,-0.265 0.473,0.025 -0.315,0.13 -0.843,0.158 -1.502,0.962 -1.975,0.962 h -0.157 c 0.473,-2 1.237,-3.62 2.289,-5.146 0.264,-0.686 0.105,-0.787 -0.473,-0.05 -0.896,1.263 -1.686,2.505 -2.369,3.926 -0.317,-0.316 -0.554,-0.946 -0.712,-1.788 -0.21,-1 -0.368,-1.053 -0.473,-0.105 0.157,1.211 0.394,2.067 0.71,2.593 -1.157,1.79 -2.079,2.495 -2.764,2.126 0.421,-2.526 0.974,-5.188 1.659,-7.979 1.209,-1.21 2.263,-1.607 3.157,-1.186 1.264,-1 2.344,-1.186 3.238,-0.554 0.473,0.79 0.684,1.565 0.631,2.329 -0.053,0.763 -0.315,1.618 -0.789,2.565 0.999,0 1.527,0.396 1.58,1.185 -0.423,1.79 -1.265,3.079 -2.528,3.868 1.159,0.214 1.778,0.58 1.857,1.106 z"
       id="path3748"
       style="clip-rule:evenodd;fill:#ffffff;fill-rule:evenodd" /><path
       d="m 21.091,62.64533 c 0.009,0.183 0.192,0.172 0.383,0.337 0.735,0.494 1.446,0.28 1.942,-0.638 0.668,-0.923 0.444,-1.631 -0.292,-2.118 -0.383,-0.344 -0.383,-0.344 -0.713,0.214 z m -10.422,-6.976 c 0.944,0.669 1.501,1.171 2.509,-0.134 0.499,-0.736 0.451,-1.623 -0.104,-1.956 -0.185,-0.161 -0.551,-0.323 -0.551,-0.323 -0.186,0.008 -0.176,0.189 -0.354,0.2 z m 14.977,7.366 c 0.139,-0.723 0.282,-1.263 -0.27,-1.768 l 0.167,-0.192 c 0.357,0.165 0.75,0.501 1.11,0.659 0.374,0.157 0.744,0.494 1.292,0.638 l -0.173,0.183 c -0.178,-0.165 -0.726,-0.309 -0.89,0.049 -0.163,0.376 -0.603,2.174 -0.766,2.725 l -0.542,3.058 2.237,-1.894 c 0.333,-0.375 1.699,-1.707 1.858,-2.065 0.333,-0.558 -0.038,-0.711 -0.225,-0.887 l -0.019,-0.348 c 0.375,0.33 0.736,0.495 0.931,0.66 0.373,0.161 0.731,0.318 0.925,0.49 l 0.009,0.168 c -0.742,-0.487 -1.414,0.438 -2.104,1.007 l -4.443,4.169 -0.365,-0.168 z m -5.73,1.098 c -0.157,0.368 -0.648,1.114 -0.629,1.462 -0.16,0.368 0.194,0.533 0.577,0.869 l -0.169,0.179 c -0.37,-0.329 -0.747,-0.487 -1.306,-0.831 -0.366,-0.15 -0.739,-0.479 -1.106,-0.638 l -0.02,-0.364 c 0.368,0.168 0.741,0.505 0.91,0.137 0.341,-0.204 0.85,-0.937 1.01,-1.309 l 1.642,-2.759 c 0.154,-0.365 0.66,-1.098 0.826,-1.298 0.151,-0.536 -0.214,-0.697 -0.583,-0.855 l 0.172,-0.189 c 0.374,0.337 0.922,0.488 1.302,0.821 0.364,0.157 0.743,0.497 1.11,0.659 0.916,0.48 1.693,1.504 0.859,2.805 -0.821,1.469 -2.273,1.186 -3.199,0.529 -0.182,0.011 -0.555,-0.329 -0.555,-0.329 z m -3.972,-6.336 c 0.157,-0.368 0.656,-1.111 0.824,-1.298 0.151,-0.539 -0.216,-0.701 -0.583,-0.858 l 0.348,-0.211 3.902,2.479 -1.004,1.476 -0.185,-0.164 c 0.663,-1.098 0.275,-1.438 -0.646,-2.104 l -0.562,-0.326 c -0.178,-0.171 -0.178,-0.171 -0.519,0.204 l -1.49,2.398 c 1.116,0.838 1.632,0.276 2.132,-0.295 l 0.18,-0.011 c -0.319,0.564 -0.661,0.937 -0.831,1.301 -0.326,0.555 -0.487,0.908 -0.824,1.291 l -0.189,-0.176 c 0.659,-1.098 0.283,-1.434 -0.637,-1.925 l -0.994,1.662 c -0.163,0.357 -0.498,0.739 -0.479,1.087 0.029,0.54 0.403,0.891 0.775,1.034 0.926,0.491 1.468,0.635 2.312,-0.284 l 0.18,-0.011 -0.985,1.642 -4.46,-2.978 0.16,-0.186 c 0.2,0.165 0.558,0.333 0.91,0.13 0.163,-0.189 0.667,-0.93 1.007,-1.294 z m -4.312,2.458 c 0.028,0.536 0.038,0.712 0.417,1.055 l -0.162,0.189 c -0.198,-0.168 -0.386,-0.336 -0.569,-0.515 -0.194,-0.165 -0.555,-0.145 -0.742,-0.309 l 0.13,-0.908 0.028,-2.851 c -0.028,-0.533 -0.028,-0.533 -0.405,-0.873 l -0.833,1.118 c -0.167,0.368 -0.659,1.101 -0.819,1.466 0.019,0.357 0.207,0.525 0.574,0.688 l -0.169,0.186 c -0.368,-0.158 -0.744,-0.494 -1.104,-0.663 -0.386,-0.326 -0.763,-0.669 -1.302,-0.81 l 0.16,-0.189 c 0.371,0.161 0.558,0.322 0.903,0.13 0.352,-0.196 0.854,-0.939 1.013,-1.294 l 1.822,-2.78 c 0.172,-0.193 0.671,-0.93 0.84,-1.29 0.153,-0.365 -0.217,-0.53 -0.405,-0.694 l -0.018,-0.358 c 0.558,0.33 0.934,0.667 1.494,0.993 0.366,0.154 0.74,0.497 0.932,0.662 0.932,0.666 1.692,1.515 0.862,2.805 -0.837,1.122 -1.733,1.172 -2.647,0.674 z m 51.287,2.366 -1.476,-2.759 -0.456,2.98 z m -22.892,5.207 c 0.178,0.344 0.192,0.873 0.377,1.217 0.191,0.344 0.538,0.337 0.884,0.326 0.701,-0.2 1.032,-0.901 0.833,-1.771 -0.019,-0.698 -0.385,-1.045 -0.744,-1.375 -0.522,-0.154 -0.865,0.021 -1.223,0.031 l -0.344,0.011 z m -0.23,-2.079 0.175,-0.004 c 0.339,-0.199 0.686,-0.21 0.863,-0.386 0.337,-0.357 0.324,-0.876 0.311,-1.396 -0.199,-0.865 -0.561,-1.202 -1.252,-1.182 -0.171,0.176 -0.534,0.183 -0.534,0.183 0,0 0.01,0.344 0.014,0.522 z m -5.506,2.931 c 0.009,0.344 0.206,1.042 0.381,1.393 0.194,0.337 0.541,0.326 0.887,0.144 0.872,-0.024 1.207,-0.726 1.004,-1.771 -0.193,-0.519 -0.385,-1.038 -0.913,-1.203 -0.351,-0.157 -0.873,-0.144 -1.397,0.039 l -0.182,0.003 z m -0.401,-1.917 0.346,-0.172 c 0.344,-0.011 0.691,-0.018 0.866,-0.368 0.342,-0.358 0.332,-0.719 0.318,-1.231 -0.198,-0.873 -0.572,-1.381 -1.44,-1.188 0,0 -0.347,0.011 -0.524,0.193 l 0.009,0.347 z m 26.776,-3.079 c 0.014,0.522 -0.311,1.402 -0.129,1.743 0.014,0.529 0.538,0.336 0.894,0.326 l 0.009,0.354 c -0.355,0.011 -0.71,0.021 -1.057,0.028 -0.349,0.183 -0.69,0.192 -1.043,0.2 l -0.004,-0.172 c 0.518,-0.187 0.685,-0.372 0.852,-0.905 0.149,-0.873 0.131,-1.567 0.284,-2.282 l 0.76,-4.716 0.348,-0.007 2.773,5.333 c 0.182,0.34 0.545,0.862 0.733,1.199 0.183,0.171 0.53,0.161 0.877,0.153 l 0.01,0.344 c -0.348,0.011 -0.873,0.025 -1.219,0.211 -0.525,0.014 -1.043,0.199 -1.394,0.207 l -0.004,-0.169 c 0.164,-0.186 0.693,-0.196 0.497,-0.715 -0.004,-0.172 -0.179,-0.519 -0.184,-0.69 l -0.743,-1.214 -2.27,0.421 z m -3.265,-4.456 0.178,-0.004 0.42,2.258 -0.185,0.004 c -0.387,-1.213 -1.285,-2.055 -2.328,-1.858 -1.753,0.221 -1.87,2.311 -1.651,4.05 0.406,1.735 1.146,3.461 2.894,3.24 1.22,-0.379 1.546,-1.431 1.509,-2.826 l 0.17,-0.183 0.42,2.605 -0.365,-0.513 c -0.51,0.712 -1.205,0.901 -1.905,1.095 -1.915,0.406 -3.534,-0.947 -3.945,-3.201 -0.238,-2.266 0.769,-4.215 2.681,-4.433 0.883,-0.199 1.414,-0.038 2.12,0.288 z m -7.168,3.327 c -0.01,-0.354 -0.197,-1.041 -0.206,-1.389 -0.367,-0.34 -0.71,-0.329 -0.892,-0.326 l -0.18,-0.161 c 0.521,-0.196 1.053,-0.21 1.406,-0.221 0.519,-0.011 1.041,-0.203 1.393,-0.214 l 0.005,0.179 c -0.175,0.004 -0.526,0.193 -0.689,0.533 0.01,0.364 0.028,1.048 0.208,1.398 l 0.445,3.307 c 0.009,0.344 0.207,1.21 0.377,1.378 0.191,0.344 0.549,0.333 0.891,0.322 l 0.01,0.358 c -0.518,0.014 -0.882,0.021 -1.4,0.035 -0.347,0.179 -0.869,0.192 -1.394,0.206 l -0.004,-0.168 c 0.354,-0.011 0.697,-0.018 0.683,-0.547 0.167,-0.351 -0.028,-1.041 -0.036,-1.385 z m -6.098,1.164 c -0.01,-0.351 -0.211,-1.213 -0.221,-1.567 -0.187,-0.34 -0.7,-0.329 -0.88,-0.15 l -0.188,-0.344 c 0.526,-0.014 1.055,-0.024 1.404,-0.203 0.523,-0.015 1.058,-0.028 1.399,-0.218 l 0.176,0.344 c -0.348,0.011 -0.694,0.018 -0.861,0.368 0.009,0.347 0.208,1.21 0.218,1.57 l 0.435,3.296 c 0.219,1.396 0.575,1.732 1.8,1.525 0.343,-0.183 0.878,-0.196 1.212,-0.561 0.348,-0.354 0.334,-0.873 0.32,-1.402 l 0.345,-0.187 0.222,2.094 c -0.166,0.003 -0.35,0.01 -0.515,0.014 -1.58,0.218 -3.328,0.606 -4.9,0.827 l -0.005,-0.179 c 0.35,-0.175 0.698,-0.186 0.688,-0.536 0.166,-0.351 -0.033,-1.224 -0.042,-1.574 z m -5.598,1.01 c -0.01,-0.354 -0.205,-1.213 -0.392,-1.389 -0.184,-0.336 -0.531,-0.326 -0.888,-0.318 l -0.004,-0.169 c 0.527,-0.192 0.874,-0.203 1.41,-0.217 0.337,-0.008 0.683,-0.193 1.045,-0.204 1.044,-0.21 2.274,-0.06 2.487,1.333 0.209,1.041 -0.49,1.574 -1.179,1.953 0.529,-0.015 1.055,-0.028 1.421,0.312 0.525,0.33 0.895,0.842 1.084,1.354 0.023,0.877 -0.315,1.406 -0.654,1.768 -0.515,0.539 -1.216,0.557 -1.744,0.571 -0.167,0.182 -0.696,0.196 -1.04,0.207 -0.538,0.014 -1.057,0.196 -1.571,0.382 l -0.009,-0.34 c 0.172,-0.007 0.691,-0.021 0.677,-0.544 -0.009,-0.347 -0.2,-1.048 -0.208,-1.389 z m -5.908,1.02 c -0.01,-0.34 -0.208,-1.213 -0.217,-1.554 -0.181,-0.343 -0.538,-0.336 -0.88,-0.146 l -0.009,-0.351 c 0.347,-0.011 0.875,-0.025 1.218,-0.215 0.535,-0.014 0.882,-0.021 1.225,-0.199 0.868,-0.196 2.281,-0.06 2.501,1.501 0.202,1.048 -0.315,1.577 -1,1.935 0.528,-0.014 1.05,-0.027 1.402,0.151 0.541,0.326 0.903,0.845 0.921,1.539 0.189,0.701 -0.134,1.228 -0.655,1.764 -0.342,0.357 -1.034,0.547 -1.562,0.561 -0.536,0.015 -0.883,0.024 -1.222,0.211 -0.711,0.018 -1.049,0.21 -1.754,0.228 l -0.005,-0.182 c 0.344,-0.187 0.701,-0.197 0.869,-0.548 -0.009,-0.34 -0.209,-1.209 -0.219,-1.557 z m 59.424,0.922 -0.531,-3.204 -1.422,2.854 z m 11.901,-0.792 c 0,-0.351 -0.177,-1.238 -0.177,-1.424 -0.17,-0.536 -0.536,-0.351 -0.885,-0.351 v -0.364 c 0.349,0 0.885,0 1.414,0 0.351,0 0.888,-0.176 1.422,-0.176 v 0.354 c -0.351,0 -0.721,0 -0.885,0.364 0,0.357 0,1.245 0,1.596 l 0.351,3.212 c 0,0.357 0,1.24 0.184,1.602 0.177,0.354 0.531,0.354 0.878,0.354 v 0.175 c -0.527,0 -0.878,0 -1.412,0 -0.537,0.176 -0.89,0.176 -1.42,0.176 v -0.176 c 0.184,0 0.715,0 0.715,-0.529 0.168,-0.361 0,-1.069 0,-1.427 z m -6.976,-0.681 c 0,-0.361 0.188,-1.248 0.188,-1.599 -0.188,-0.357 -0.537,-0.544 -0.89,-0.544 l 0.183,-0.164 c 0.348,0 0.88,0.164 1.236,0.164 0.534,0.187 1.065,0.187 1.594,0.187 l -0.171,0.357 c -0.177,0 -0.717,-0.175 -0.889,0.175 -0.177,0.352 -0.177,1.249 -0.361,1.596 l -0.529,3.397 c -0.173,1.417 0,1.774 1.062,1.957 0.54,0 1.064,0.175 1.415,0 0.724,-0.361 0.724,-0.723 0.893,-1.431 h 0.359 l -0.528,2.139 c 0,-0.176 -0.362,-0.176 -0.362,-0.176 -1.776,-0.357 -3.371,-0.532 -5.134,-0.894 v -0.179 c 0.344,0 0.698,0 1.056,-0.354 0,-0.172 0.177,-1.062 0.359,-1.424 z m -7.41,1.834 c -0.177,0.354 -0.529,1.241 -0.705,1.603 0,0.525 0.528,0.525 0.705,0.712 v 0.175 c -0.357,0 -0.705,-0.175 -1.057,-0.175 -0.363,0 -0.718,-0.187 -1.064,-0.187 l 0.17,-0.164 c 0.531,0 0.701,-0.187 1.069,-0.723 0.353,-0.712 0.705,-1.42 1.064,-2.136 l 2.125,-4.271 0.351,0.169 1.062,6.062 c 0.188,0.354 0.188,1.062 0.359,1.424 0.172,0.368 0.352,0.368 0.702,0.536 v 0.18 c -0.351,0 -0.873,-0.18 -1.413,-0.18 -0.36,-0.168 -0.885,-0.168 -1.416,-0.168 l 0.177,-0.368 c 0.178,0 0.705,0.183 0.705,-0.175 0,-0.351 0,-0.712 0,-1.073 l -0.177,-1.241 -2.476,-0.361 z m -0.683,-3.646 -0.183,-0.172 c 0.183,-1.073 -0.175,-1.438 -1.059,-1.616 -0.531,0 -1.073,-0.168 -1.073,0.179 l -0.878,5.519 c 0,0.897 0,1.073 0.878,1.435 v 0.172 c -0.523,0 -1.059,-0.172 -1.583,-0.351 -0.54,0 -1.071,0 -1.603,-0.183 v -0.176 c 1.062,0 1.252,-0.175 1.421,-1.072 l 0.706,-5.522 c 0.181,-0.168 -0.359,-0.354 -0.706,-0.354 -1.069,-0.164 -1.421,-0.164 -1.592,1.248 l -0.358,-0.175 0.358,-1.788 6.023,1.069 z m -8.98,-1.196 c 0,-0.361 0.174,-1.066 0,-1.431 0,-0.351 -0.351,-0.533 -0.697,-0.533 v -0.351 c 0.517,0.172 1.059,0.351 1.413,0.351 0.532,0 1.059,0.183 1.592,0.183 l -0.181,0.172 c -0.189,0 -0.71,0 -0.879,0.361 -0.186,0.354 -0.186,1.062 -0.357,1.427 l -0.359,3.38 c -0.17,0.361 -0.17,1.244 -0.17,1.431 0,0.529 0.354,0.529 0.701,0.529 v 0.361 c -0.531,-0.189 -0.889,-0.189 -1.413,-0.361 -0.538,0 -0.885,0 -1.413,-0.183 v -0.175 c 0.344,0 0.692,0 0.875,-0.358 0.191,-0.175 0.357,-1.069 0.357,-1.416 z m 42.778,-5.339 -2.653,-1.781 1.062,3.032 z m -11.948,8.589 -2.307,-2.132 0.534,3.033 z m 10.53,-6.633 c 0,0.533 0.361,1.427 0.54,1.781 0.355,0.357 0.708,0 0.878,-0.179 l 0.183,0.357 c -0.183,0.179 -0.527,0.364 -0.882,0.54 -0.179,0.161 -0.542,0.351 -0.719,0.712 l -0.174,-0.361 c 0.351,-0.351 0.351,-0.526 0.351,-1.069 -0.351,-0.891 -0.531,-1.603 -0.701,-2.314 l -1.42,-4.628 0.17,-0.186 5.151,3.572 c 0.17,0.172 0.874,0.712 1.059,0.712 0.347,0.176 0.708,0 1.065,-0.183 v 0.358 c -0.357,0.182 -0.719,0.354 -1.065,0.708 -0.351,0.357 -0.712,0.54 -1.059,0.897 l -0.178,-0.186 c 0.178,-0.172 0.524,-0.533 0.348,-0.891 -0.17,-0.176 -0.524,-0.348 -0.708,-0.529 l -1.056,-0.716 -1.957,1.424 z m -8.861,1.29 c -0.529,-0.186 -0.893,-0.186 -1.239,0.183 l -0.181,-0.368 c 0.354,-0.172 0.527,-0.172 0.712,-0.526 0.179,0 0.531,-0.175 0.708,-0.354 l 6.916,2.317 -1.953,-2.683 c -0.354,-0.347 -0.704,-1.065 -1.065,-1.416 -0.521,-0.357 -0.712,-0.179 -1.236,0 l -0.181,-0.179 c 0.354,-0.179 0.705,-0.361 1.07,-0.537 0.173,-0.36 0.347,-0.529 0.708,-0.722 l 0.177,0.192 c -0.177,0.357 -0.538,0.357 -0.354,0.888 0.178,0.357 0.882,1.248 1.245,1.773 l 2.829,3.931 -0.177,0.172 c -0.354,0 -0.705,-0.172 -1.062,-0.357 l -6.387,-2.132 2.306,3.201 c 0.188,0.364 0.716,0.894 1.062,1.248 0.361,0.183 0.712,0 1.065,-0.186 v 0.186 c -0.179,0.364 -0.527,0.54 -0.882,0.712 -0.357,0.175 -0.53,0.354 -0.896,0.715 l -0.163,-0.179 c 0.354,-0.361 0.528,-0.536 0.354,-1.065 -0.191,-0.368 -0.542,-0.895 -0.896,-1.259 z m -3.257,7.128 c 0,0.354 0.17,1.252 0.347,1.774 0.181,0.361 0.698,0.176 0.879,0 l 0.18,0.176 c -0.36,0.186 -0.523,0.361 -0.878,0.547 -0.357,0.172 -0.712,0.347 -0.889,0.522 l -0.183,-0.176 c 0.359,-0.347 0.544,-0.532 0.359,-1.244 0,-0.716 -0.177,-1.6 -0.359,-2.311 l -0.887,-4.811 h 0.361 l 4.6,4.092 c 0.186,0.182 0.717,0.719 1.068,0.89 0.349,0.18 0.708,0 0.889,0 l 0.177,0.18 c -0.357,0.175 -0.887,0.36 -1.243,0.715 -0.351,0.179 -0.891,0.354 -1.243,0.712 l -0.179,-0.357 c 0.357,0 0.717,-0.354 0.531,-0.709 -0.174,-0.186 -0.353,-0.54 -0.706,-0.711 l -0.884,-0.719 -2.125,1.069 z"
       id="path3750"
       style="clip-rule:evenodd;fill:#ffffff;fill-rule:evenodd" /><g
       id="g3764"
       transform="translate(0,-66.66667)"><path
         d="m 18.779,83.35 c -0.471,-1.431 -1.013,-3.135 -1.18,-3.695 l -0.103,-0.347 4.069,-2.314 C 21.131,74.909 20.84,73.037 20.679,71.292 l -4.585,-0.945 -0.012,-0.358 c -0.035,-0.979 -0.035,-5.013 0,-5.993 l 0.012,-0.357 4.584,-0.945 c 0.162,-1.812 0.453,-3.684 0.884,-5.7 l -2.256,-1.265 1.542,-0.179 1.746,0.979 -0.073,0.329 c -0.491,2.23 -0.807,4.273 -0.967,6.249 l -0.027,0.339 -4.547,0.937 c -0.023,1.207 -0.023,4.009 0,5.216 l 4.547,0.937 0.028,0.338 c 0.158,1.893 0.474,3.938 0.968,6.252 l 0.069,0.326 -4.018,2.284 c 0.19,0.617 0.511,1.627 0.831,2.608 z m 8.107,13.289 c 0.398,0.55 0.764,1.052 1.018,1.389 l 4.192,-1.904 0.223,0.249 c 1.306,1.469 2.776,2.928 4.494,4.46 l 0.249,0.221 -1.908,4.235 c 0.943,0.726 3.217,2.367 4.207,3.044 l 3.401,-3.124 0.291,0.175 c 1.824,1.087 3.728,2.051 5.661,2.865 l 0.314,0.133 -0.521,4.614 c 1.156,0.403 3.814,1.266 4.971,1.616 l 2.253,-4.021 0.33,0.073 c 2.181,0.48 4.284,0.807 6.249,0.965 l 0.339,0.027 0.938,4.548 c 0.576,0.011 1.539,0.018 2.621,0.018 1.075,0 2.027,-0.007 2.593,-0.018 l 0.901,-4.506 0.335,-0.031 c 2.279,-0.225 4.323,-0.554 6.25,-1.003 l 0.331,-0.077 2.29,4.025 c 1.18,-0.354 3.845,-1.213 4.974,-1.613 l -0.521,-4.579 0.309,-0.137 c 1.972,-0.858 3.867,-1.833 5.629,-2.899 l 0.289,-0.175 3.441,3.127 c 0.983,-0.666 3.241,-2.328 4.199,-3.05 l -1.941,-4.197 0.256,-0.225 c 1.73,-1.504 3.198,-2.97 4.484,-4.484 l 0.222,-0.26 4.24,1.911 c 0.728,-0.943 2.368,-3.215 3.047,-4.204 l -3.124,-3.404 0.174,-0.291 c 1.069,-1.795 2.033,-3.688 2.864,-5.627 l 0.134,-0.309 4.614,0.487 c 0.41,-1.161 1.286,-3.808 1.595,-4.938 l -4,-2.293 0.073,-0.326 c 0.491,-2.233 0.807,-4.277 0.966,-6.249 l 0.028,-0.34 4.555,-0.938 c 0.047,-1.197 0.047,-4.011 10e-4,-5.209 l -4.556,-0.905 -0.028,-0.341 c -0.186,-2.23 -0.522,-4.329 -0.999,-6.238 l -0.083,-0.334 4.038,-2.297 c -0.33,-1.167 -1.19,-3.847 -1.587,-4.966 l -4.621,0.556 -0.132,-0.32 c -0.779,-1.899 -1.742,-3.802 -2.862,-5.655 l -0.176,-0.292 3.13,-3.407 c -0.677,-1.013 -2.326,-3.296 -3.075,-4.236 l -4.174,1.948 -0.225,-0.259 c -1.391,-1.597 -2.857,-3.065 -4.488,-4.487 l -0.256,-0.223 1.911,-4.203 c -0.948,-0.74 -3.217,-2.414 -4.232,-3.083 l -3.373,3.13 -0.292,-0.174 c -1.825,-1.088 -3.731,-2.052 -5.661,-2.865 l -0.313,-0.132 0.521,-4.592 c -1.114,-0.418 -3.791,-1.28 -4.968,-1.612 l -2.26,4.034 -0.335,-0.079 C 74.186,22.851 72.146,22.525 70.079,22.357 L 69.741,22.33 68.8,17.807 c -0.562,-0.021 -1.521,-0.034 -2.607,-0.034 -1.084,0 -2.042,0.013 -2.604,0.034 l -0.904,4.52 -0.34,0.028 c -2.232,0.187 -4.331,0.522 -6.238,0.999 l -0.333,0.083 -2.331,-4.036 c -1.149,0.332 -3.803,1.194 -4.938,1.614 l 0.521,4.59 -0.314,0.132 c -1.9,0.794 -3.792,1.757 -5.623,2.863 l -0.29,0.175 -3.438,-3.126 c -0.478,0.33 -1.253,0.887 -2.035,1.457 l 0.146,-1.229 c 0.729,-0.527 1.375,-0.984 1.682,-1.185 l 0.294,-0.192 3.46,3.147 c 1.677,-0.995 3.402,-1.873 5.137,-2.617 l -0.524,-4.605 0.32,-0.13 c 0.949,-0.387 4.749,-1.619 5.705,-1.866 l 0.335,-0.087 2.337,4.048 c 1.767,-0.422 3.683,-0.729 5.708,-0.912 l 0.907,-4.537 0.345,-0.024 h 0.001 v 0 0 l 0.01,-0.001 h 0.008 l 0.011,-0.001 v 0 0 0 h 0.001 v 0 h 0.01 v -10e-4 l 0.298,-0.021 c 0,0 0.011,-0.001 0.015,-0.001 l 0.081,-0.006 v 0.001 c 0.023,-0.001 0.032,-0.001 0.032,-0.001 h 0.349 c 0.645,-0.015 1.48,-0.021 2.197,-0.021 1.095,0 2.462,0.014 3.014,0.053 l 0.344,0.024 0.941,4.537 c 1.888,0.168 3.761,0.468 5.703,0.914 l 2.269,-4.048 0.336,0.084 c 1.007,0.251 4.844,1.487 5.75,1.87 l 0.312,0.132 -0.522,4.602 c 1.761,0.756 3.494,1.635 5.167,2.616 l 3.383,-3.14 0.293,0.176 c 0.893,0.536 4.139,2.938 4.898,3.559 l 0.271,0.221 -1.923,4.23 c 1.474,1.302 2.818,2.647 4.095,4.093 l 4.187,-1.953 0.225,0.261 c 0.652,0.756 3.017,4.03 3.562,4.901 l 0.183,0.294 -3.143,3.421 c 1.007,1.696 1.887,3.431 2.618,5.167 l 4.646,-0.558 0.126,0.33 c 0.351,0.911 1.576,4.723 1.83,5.734 l 0.085,0.335 -4.047,2.302 c 0.423,1.767 0.728,3.682 0.912,5.705 l 4.572,0.907 0.024,0.345 c 0.069,0.986 0.069,5.041 0,6.026 l -0.024,0.343 -4.572,0.941 c -0.161,1.812 -0.452,3.685 -0.886,5.705 l 4.011,2.302 -0.073,0.326 c -0.223,1.006 -1.506,4.831 -1.83,5.704 l -0.121,0.333 -4.656,-0.49 c -0.77,1.764 -1.647,3.488 -2.615,5.137 l 3.148,3.429 -0.193,0.295 c -0.552,0.845 -2.887,4.081 -3.515,4.849 l -0.221,0.27 -4.26,-1.921 c -1.198,1.382 -2.544,2.725 -4.101,4.095 l 1.961,4.239 -0.285,0.221 c -0.778,0.604 -3.999,2.98 -4.85,3.514 l -0.291,0.183 -3.455,-3.142 c -1.62,0.96 -3.345,1.851 -5.137,2.644 l 0.524,4.621 -0.328,0.126 c -0.91,0.348 -4.727,1.574 -5.721,1.858 l -0.343,0.099 -2.311,-4.061 c -1.772,0.399 -3.646,0.698 -5.701,0.911 l -0.91,4.555 -0.36,0.015 c -0.546,0.018 -1.898,0.024 -2.984,0.024 -1.084,0 -2.444,-0.007 -3.009,-0.024 l -0.357,-0.015 -0.944,-4.582 c -1.807,-0.165 -3.722,-0.463 -5.701,-0.888 l -2.277,4.064 -0.345,-0.099 c -0.944,-0.27 -4.749,-1.501 -5.715,-1.858 l -0.334,-0.122 0.525,-4.653 c -1.761,-0.757 -3.497,-1.638 -5.168,-2.615 l -3.428,3.148 -0.295,-0.193 c -0.846,-0.554 -4.083,-2.889 -4.85,-3.517 l -0.27,-0.221 1.924,-4.267 c -1.542,-1.389 -2.887,-2.722 -4.097,-4.061 l -4.241,1.929 -0.22,-0.288 c -0.21,-0.27 -0.622,-0.831 -1.097,-1.483 z"
         id="path3752"
         style="fill:#ffffff" /><path
         d="m 66.137,103.875 c -5.374,0 -10.564,-1.136 -15.43,-3.376 l -0.653,-0.302 16.128,-20.298 15.761,20.448 -0.652,0.291 c -4.722,2.119 -9.962,3.237 -15.154,3.237 z M 51.834,99.77 c 4.527,1.978 9.333,2.977 14.302,2.977 4.795,0 9.631,-0.981 14.037,-2.851 L 66.169,81.73 Z M 92.77,92.6 78.448,71.008 l 24.325,-8.673 0.076,0.71 c 1.154,10.604 -2.342,21.185 -9.593,29.029 z M 80.186,71.586 92.913,90.772 c 6.542,-7.366 9.758,-17.092 8.888,-26.894 z M 39.324,92.287 38.845,91.754 C 31.699,83.813 28.32,73.194 29.571,62.62 l 0.084,-0.712 24.287,9.043 z M 30.613,63.468 c -0.959,9.777 2.149,19.538 8.595,26.993 L 52.195,71.504 Z m 43.176,-6.877 -0.736,-25.836 0.699,0.147 c 10.48,2.204 19.459,8.811 24.639,18.125 l 0.347,0.625 z M 74.22,32.16 74.876,55.118 97.049,48.951 C 92.1,40.458 83.845,34.386 74.22,32.16 Z M 58.621,56.565 33.852,49.256 34.209,48.636 C 39.543,39.372 48.589,32.883 59.026,30.83 l 0.702,-0.139 z M 35.55,48.582 57.556,55.075 58.54,32.083 C 48.952,34.17 40.639,40.136 35.55,48.582 Z"
         id="path3754"
         style="fill:#ffffff" /><path
         d="m 66.176,33.47 -7.792,22.237 -0.123,0.349 -0.369,0.009 -23.581,0.57 18.743,14.277 0.294,0.223 -0.105,0.354 L 46.49,94.135 65.872,80.73 66.174,80.52 66.479,80.73 85.894,94.134 79.143,71.56 79.038,71.208 79.333,70.982 98.077,56.637 74.533,56.1 74.161,56.091 74.039,55.744 Z m -8.679,21.537 8.173,-23.322 0.503,-1.435 0.506,1.432 8.244,23.36 24.696,0.563 1.52,0.035 -1.206,0.923 -19.66,15.045 7.081,23.677 0.437,1.455 -1.252,-0.862 -20.364,-14.061 -20.329,14.061 -1.25,0.862 0.434,-1.455 7.082,-23.748 -19.66,-14.973 -1.209,-0.921 1.521,-0.037 z"
         id="path3756"
         style="fill:#ffffff" /><g
         id="g3762"><polygon
           points="22.658,104.549 22.662,104.556 "
           id="polygon3758"
           style="clip-rule:evenodd;fill:#ffffff;fill-rule:evenodd" /><polygon
           points="20.529,100.211 22.658,104.549 "
           id="polygon3760"
           style="clip-rule:evenodd;fill:#ffffff;fill-rule:evenodd" /></g></g></g></svg>